<svg xmlns="http://www.w3.org/2000/svg" width="900" height="750" id="subscribe"><linearGradient id="a" x1="189.745" x2="694.992" y1="154.375" y2="659.623" gradientUnits="userSpaceOnUse"><stop offset="0" stop-color="#706aed"></stop><stop offset="1" stop-color="#271068"></stop></linearGradient><path fill="url(#a)" d="M442.5 93c52.234 1.791 77.146 8.807 129.5 56 39.772 35.852 48.5 51.5 82 66.5 24.196 10.834 148 32.5 179.5 133 33.446 106.708-1.341 201.808-84 244.5-91 47-162.556 6.985-205-11-59-25-83.027-35.754-183 14.5-93.5 47-197 19.5-257.5-56.5-57.103-71.732-78.099-204.768-12-286.5 55.667-68.833 119.5-48 172-74.5 41.473-20.934 91-89 178.5-86z"></path><radialGradient id="b" cx="604.77" cy="610.481" r="136.954" gradientTransform="matrix(.9958 .0914 -.0466 .508 31.012 245.054)" gradientUnits="userSpaceOnUse"><stop offset="0" stop-color="#fff" stop-opacity=".3"></stop><stop offset=".292" stop-color="#fdfdfe" stop-opacity=".212"></stop><stop offset=".434" stop-color="#f5f8fb" stop-opacity=".17"></stop><stop offset=".544" stop-color="#e8eef6" stop-opacity=".137"></stop><stop offset=".637" stop-color="#d6dfef" stop-opacity=".109"></stop><stop offset=".72" stop-color="#bdcde6" stop-opacity=".084"></stop><stop offset=".795" stop-color="#a0b6db" stop-opacity=".061"></stop><stop offset=".865" stop-color="#7c9bce" stop-opacity=".041"></stop><stop offset=".93" stop-color="#537cbe" stop-opacity=".021"></stop><stop offset=".989" stop-color="#265aad" stop-opacity=".003"></stop><stop offset="1" stop-color="#1d53aa" stop-opacity="0"></stop></radialGradient><path fill="url(#b)" d="M594.689 540.75c-33.627 0-65.104 9.185-92.082 25.163 12.879 3.754 26.139 9.411 41.893 16.087 39.397 16.694 103.882 52.355 185.713 19.802-33.158-37.44-81.578-61.052-135.524-61.052z"></path><radialGradient id="c" cx="766.7" cy="345.657" r="34.665" gradientUnits="userSpaceOnUse"><stop offset="0" stop-color="#fff" stop-opacity=".25"></stop><stop offset=".294" stop-color="#fdfdfe" stop-opacity=".177"></stop><stop offset=".437" stop-color="#f6f5fa" stop-opacity=".141"></stop><stop offset=".547" stop-color="#eae8f2" stop-opacity=".113"></stop><stop offset=".641" stop-color="#d9d6e8" stop-opacity=".09"></stop><stop offset=".724" stop-color="#c3bdda" stop-opacity=".069"></stop><stop offset=".8" stop-color="#a8a0ca" stop-opacity=".05"></stop><stop offset=".87" stop-color="#887cb6" stop-opacity=".033"></stop><stop offset=".935" stop-color="#63549f" stop-opacity=".016"></stop><stop offset=".995" stop-color="#3a2685" stop-opacity=".001"></stop><stop offset="1" stop-color="#362283" stop-opacity="0"></stop></radialGradient><circle cx="766.7" cy="345.657" r="34.665" fill="url(#c)"></circle><radialGradient id="d" cx="107.334" cy="325.666" r="34.334" gradientUnits="userSpaceOnUse"><stop offset="0" stop-color="#fff" stop-opacity=".25"></stop><stop offset=".321" stop-color="#fdfdff" stop-opacity=".17"></stop><stop offset=".477" stop-color="#f6f5fd" stop-opacity=".131"></stop><stop offset=".597" stop-color="#e9e8fa" stop-opacity=".101"></stop><stop offset=".7" stop-color="#d8d6f6" stop-opacity=".075"></stop><stop offset=".79" stop-color="#c1bdf1" stop-opacity=".052"></stop><stop offset=".873" stop-color="#a5a0eb" stop-opacity=".032"></stop><stop offset=".948" stop-color="#847de4" stop-opacity=".013"></stop><stop offset="1" stop-color="#6860de" stop-opacity="0"></stop></radialGradient><circle cx="107.333" cy="325.667" r="34.333" fill="url(#d)"></circle><linearGradient id="e" x1="91.541" x2="123.126" y1="309.875" y2="341.459" gradientUnits="userSpaceOnUse"><stop offset="0" stop-color="#ffe2a8"></stop><stop offset="1" stop-color="#271068"></stop></linearGradient><circle cx="107.333" cy="325.667" r="22.333" fill="url(#e)"></circle><linearGradient id="f" x1="91.541" x2="123.126" y1="309.875" y2="341.459" gradientUnits="userSpaceOnUse"><stop offset="0" stop-color="#ffe2a8"></stop><stop offset="1" stop-color="#a482ff"></stop></linearGradient><circle cx="107.333" cy="325.667" r="22.333" fill="url(#f)"></circle><path fill="#FDE1A7" d="M99.833 327.5c-3.125 0-5.667-2.542-5.667-5.667s2.542-5.667 5.667-5.667 5.667 2.542 5.667 5.667-2.542 5.667-5.667 5.667zm0-10.333c-2.573 0-4.667 2.093-4.667 4.667s2.093 4.667 4.667 4.667 4.667-2.093 4.667-4.667-2.093-4.667-4.667-4.667z"></path><path fill="#DABACC" d="M116.201 340.891c-2.127 0-3.936-.912-4.96-2.502-1.804-2.8-.553-6.829 2.787-8.982 1.351-.87 2.862-1.33 4.371-1.33 2.127 0 3.936.912 4.96 2.503 1.804 2.8.554 6.829-2.787 8.981-1.351.871-2.862 1.33-4.371 1.33zm2.197-11.814c-1.316 0-2.64.405-3.829 1.17-2.877 1.854-3.994 5.263-2.488 7.599.837 1.299 2.338 2.044 4.12 2.044 1.316 0 2.64-.405 3.829-1.17 2.877-1.854 3.994-5.263 2.488-7.599-.837-1.299-2.338-2.044-4.12-2.044z"></path><path fill="#FDE1A7" d="m92.587 342.579-.59-.808c1.225-.895 1.928-2.265 1.928-3.761a4.672 4.672 0 0 0-4.667-4.667c-.882 0-1.749.257-2.507.743l-.539-.842a5.641 5.641 0 0 1 3.046-.901 5.673 5.673 0 0 1 5.667 5.667c0 1.819-.852 3.484-2.338 4.569zM119.37 313.265c-2.757 0-5-2.243-5-5 0-1.298.501-2.532 1.412-3.473l.719.695a3.977 3.977 0 0 0-1.13 2.777c0 2.206 1.794 4 4 4 1.549 0 2.93-.878 3.602-2.292l.903.43c-.828 1.739-2.596 2.863-4.506 2.863z"></path><linearGradient id="g" x1="749.731" x2="783.672" y1="328.687" y2="362.628" gradientUnits="userSpaceOnUse"><stop offset="0" stop-color="#8c6ae2"></stop><stop offset="1" stop-color="#5a55f8"></stop></linearGradient><circle cx="766.7" cy="345.657" r="24" fill="url(#g)"></circle><path fill="#0090B2" d="M788.905 355.274a.483.483 0 0 1-.178-.033c-3.897-1.485-10.881-6.91-17.792-13.821-6.911-6.911-12.336-13.895-13.819-17.792a.499.499 0 1 1 .934-.355c1.438 3.775 6.773 10.621 13.593 17.44 6.819 6.819 13.665 12.155 17.44 13.593a.499.499 0 0 1-.178.968z"></path><path fill="#8A69E3" d="M790.684 347.055a.504.504 0 0 1-.224-.053c-3.716-1.854-8.999-6.025-14.133-11.159-5.024-5.024-9.157-10.233-11.056-13.932a.5.5 0 1 1 .889-.457c1.854 3.612 5.92 8.727 10.874 13.682 5.062 5.062 10.248 9.163 13.873 10.972a.5.5 0 0 1-.223.947z"></path><linearGradient id="h" x1="534.927" x2="703.282" y1="586.981" y2="586.981" gradientUnits="userSpaceOnUse"><stop offset="0" stop-color="#005092"></stop><stop offset="1" stop-color="#8c6ae2"></stop></linearGradient><path fill="url(#h)" d="M601.609 558.918c-24.481 0-47.331 6.976-66.683 19.037 3.097 1.3 6.278 2.648 9.573 4.045 34.969 14.817 89.7 44.578 158.782 28.322-22.987-31.176-59.965-51.404-101.672-51.404z"></path><linearGradient id="i" x1="617.739" x2="703.282" y1="588.249" y2="588.249" gradientUnits="userSpaceOnUse"><stop offset="0" stop-color="#1aa9e8"></stop><stop offset="1" stop-color="#005092"></stop></linearGradient><path fill="url(#i)" d="M703.282 610.322c-18.223-24.713-45.24-42.534-76.432-48.866-4.879.976-9.365 3.272-9.101 8.294.5 9.5 14.966 10.397 22.25 12 8.334 1.833 20.001 5.583 20.25 11.75.182 4.499-5.665 5.165-8.665 5.165s-7.496-1.416-8.252 1.168c-.999 3.417 6.299 4.66 5.834 7.167-.688 3.715-10.227 3.004-12.131 6.204 20.221 2.857 42.377 2.735 66.247-2.882z"></path><linearGradient id="j" x1="534.927" x2="608.089" y1="579.285" y2="579.285" gradientUnits="userSpaceOnUse"><stop offset="0" stop-color="#005092"></stop><stop offset="1" stop-color="#1aa9e8"></stop></linearGradient><path fill="url(#j)" d="M584.5 591.5c3-4.167 25.166-4.667 23.5-12.667-1.435-6.887-27.667-1.666-28.834-9.5-.691-4.643 5.057-7.821 10.617-9.849a125.489 125.489 0 0 0-54.856 18.471c3.097 1.3 6.278 2.648 9.573 4.045 11.363 4.815 24.816 11.208 40.168 17.087-1.168-2.668-1.669-5.503-.168-7.587z"></path><path fill="#4578BA" d="M345.74 567.416c-2.778 0-5.585-.218-8.429-.673-16.875-2.705-28.453-12.549-34.414-29.261-9.344-26.195-1.449-63.03 6.063-71.48a.5.5 0 1 1 .748.664c-6.382 7.18-15.647 43.063-5.868 70.48 5.829 16.342 17.143 25.967 33.63 28.608 2.779.445 5.529.658 8.248.659 27.929.002 52.859-22.457 79.121-46.112 21.896-19.722 44.537-40.116 71.967-51.762 39.336-16.701 74.268-14.594 99.776-13.055 13.379.809 24.933 1.505 33.633-.638 14.848-3.658 27.53-11.768 39.795-19.611 6.67-4.266 13.567-8.676 20.764-12.348 25.755-13.142 46.55-15.3 52.979-5.496 7.743 11.809-5.988 22.953-19.269 33.73-10.757 8.729-21.879 17.756-22.316 27.234-.651 14.149 19.726 19.111 19.932 19.152a.5.5 0 0 1-.195.981c-.215-.043-21.424-5.222-20.734-20.18.457-9.926 11.757-19.096 22.685-27.964 13.53-10.98 26.311-21.353 19.063-32.405-6.13-9.347-26.419-7.054-51.688 5.838-7.153 3.649-14.03 8.047-20.681 12.3-12.333 7.887-25.085 16.042-40.095 19.739-8.845 2.18-20.471 1.479-33.932.665-25.404-1.531-60.203-3.633-99.325 12.977-27.276 11.581-49.854 31.918-71.688 51.585-26.41 23.788-51.485 46.372-79.77 46.373z"></path><circle cx="661.783" cy="441.021" r="2.211" fill="#4578BA"></circle><path fill="#4578BA" d="M644.731 444.22c-19.521 0-45.385-8.747-59.344-36.16-20-39.276 12.091-71.718 16.364-74.16a.499.499 0 1 1 .496.868c-4.188 2.394-35.631 34.227-15.97 72.839 18.502 36.331 58.192 39.387 75.329 32.947a.498.498 0 0 1 .644.292.499.499 0 0 1-.292.644c-4.479 1.683-10.474 2.73-17.227 2.73zM750.125 432.375a.499.499 0 0 1-.337-.869c4.029-3.674 4.983-12.232 4.118-14.583a.5.5 0 1 1 .938-.346c.961 2.605.01 11.663-4.382 15.667a.497.497 0 0 1-.337.131z"></path><linearGradient id="k" x1="757.951" x2="772.903" y1="354.406" y2="339.454" gradientUnits="userSpaceOnUse"><stop offset="0" stop-color="#ffe2a8"></stop><stop offset="1" stop-color="#745b7f"></stop></linearGradient><path fill="url(#k)" d="M796.789 369.683c-.543-1.881-1.337-3.604-2.205-5.269-1.712-3.249-3.755-6.257-5.896-9.175a23.726 23.726 0 0 1-.903 1.867c1.848 2.646 3.565 5.382 4.993 8.23.793 1.603 1.5 3.252 1.938 4.911.215.825.356 1.66.341 2.42-.011.767-.217 1.399-.581 1.74-.356.35-.981.53-1.741.521-.751-.004-1.574-.164-2.388-.397-1.635-.471-3.258-1.211-4.833-2.036-3.156-1.665-6.156-3.706-9.068-5.853-5.822-4.316-11.254-9.193-16.371-14.359a159.613 159.613 0 0 1-7.459-7.956c-2.401-2.726-4.723-5.522-6.882-8.429-2.162-2.9-4.195-5.906-5.865-9.059-.825-1.574-1.565-3.196-2.038-4.831-.234-.813-.394-1.635-.399-2.387-.01-.752.167-1.37.509-1.728.78-.822 2.569-.679 4.171-.256 1.66.436 3.311 1.142 4.914 1.934 2.854 1.425 5.589 3.149 8.244 4.99.599-.325 1.21-.613 1.828-.883-2.904-2.153-5.913-4.187-9.156-5.902-1.664-.868-3.386-1.664-5.267-2.207-.942-.266-1.929-.472-3.005-.478-.538 0-1.104.056-1.683.228-.289.092-.58.206-.859.369a3.164 3.164 0 0 0-.438.292c-.175.131-.196.167-.303.255l-.012.01-.03.03c-.972.966-1.234 2.27-1.247 3.324-.015 1.086.172 2.085.419 3.04.506 1.906 1.268 3.656 2.104 5.349 1.689 3.376 3.715 6.516 5.866 9.549 4.323 6.054 9.237 11.627 14.467 16.867 5.273 5.197 10.854 10.092 16.881 14.449 3.021 2.167 6.166 4.184 9.539 5.878 1.692.836 3.441 1.599 5.347 2.105.954.248 1.952.436 3.038.421 1.055-.013 2.358-.275 3.324-1.246.956-.981 1.192-2.279 1.186-3.325-.009-1.074-.215-2.061-.48-3.003z"></path><radialGradient id="l" cx="761.167" cy="513.459" r="14.505" gradientTransform="matrix(.0073 1 -.9308 .0068 1233.548 -251.178)" gradientUnits="userSpaceOnUse"><stop offset="0" stop-color="#231f20"></stop><stop offset=".102" stop-color="#262228"></stop><stop offset=".264" stop-color="#2f2a3f"></stop><stop offset=".465" stop-color="#3d3865"></stop><stop offset=".699" stop-color="#504a99"></stop><stop offset=".956" stop-color="#6962db"></stop><stop offset="1" stop-color="#6d66e7"></stop></radialGradient><path fill="url(#l)" d="m759.917 506.25 11.666-5.583s2.25 5.166 2.25 12.5c0 7.5-2.916 13.083-2.916 13.083l-11.084-5.583.084-14.417z"></path><linearGradient id="m" x1="705.498" x2="705.498" y1="536.337" y2="493.671" gradientUnits="userSpaceOnUse"><stop offset="0" stop-color="#1aa9e8"></stop><stop offset="1" stop-color="#b0e1ff"></stop></linearGradient><path fill="url(#m)" d="M649.485 522.776c-.902-4.179 17.848-24.275 32.348-27.775s76.646.77 77.979 2.937 1.53 10.262 1.688 15.729c.101 3.499.166 13.334-1.667 13.834s-45.975 8.697-59.5 8.833c-16.583.166-49.598-7.767-50.848-13.558z"></path><linearGradient id="n" x1="740.918" x2="757.561" y1="481.463" y2="498.106" gradientUnits="userSpaceOnUse"><stop offset="0" stop-color="#b0e1ff"></stop><stop offset="1" stop-color="#1aa9e8"></stop></linearGradient><path fill="url(#n)" d="M756.667 473.666V499h-21.25s-1.88-.583-1.917-2.167c-.041-1.749 12-21.583 15.188-22.833 2.536-.995 7.979-.334 7.979-.334z"></path><linearGradient id="o" x1="729.688" x2="763.982" y1="513.398" y2="547.692" gradientUnits="userSpaceOnUse"><stop offset="0" stop-color="#b0e1ff"></stop><stop offset="1" stop-color="#1aa9e8"></stop></linearGradient><path fill="url(#o)" d="M711.666 531.418s15.417-6 21.167-8 23.461-7.191 23.461-7.191 21.933 9.051 23.789 10.607c1.167.979 1.575 3.016.75 4-1.083 1.291-10.771 6.541-12.904 7.098-1.988.519-12.804.443-29.513-.931-11.992-.986-28.167-2.166-26.75-5.583z"></path><path fill="#C0EAFB" d="M749.689 538.292a.5.5 0 0 1-.28-.914c5.633-3.819 20.159-10.716 27.869-12.808a.499.499 0 1 1 .261.965c-7.627 2.069-21.997 8.893-27.57 12.671a.496.496 0 0 1-.28.086z"></path><linearGradient id="p" x1="657.904" x2="657.904" y1="530.977" y2="509.771" gradientUnits="userSpaceOnUse"><stop offset="0" stop-color="#6d66e7"></stop><stop offset=".044" stop-color="#6962db"></stop><stop offset=".301" stop-color="#504a99"></stop><stop offset=".535" stop-color="#3d3865"></stop><stop offset=".736" stop-color="#2f2a3f"></stop><stop offset=".898" stop-color="#262228"></stop><stop offset="1" stop-color="#231f20"></stop></linearGradient><path fill="url(#p)" d="M658.695 509.771c-5.744 5.6-9.633 11.049-9.21 13.006.563 2.612 7.597 5.657 16.661 8.201 1.301-12.992-3.79-18.661-7.451-21.207z"></path><linearGradient id="q" x1="672.593" x2="693.657" y1="492.894" y2="505.055" gradientUnits="userSpaceOnUse"><stop offset="0" stop-color="#6d66e7"></stop><stop offset=".044" stop-color="#6962db"></stop><stop offset=".301" stop-color="#504a99"></stop><stop offset=".535" stop-color="#3d3865"></stop><stop offset=".736" stop-color="#2f2a3f"></stop><stop offset=".898" stop-color="#262228"></stop><stop offset="1" stop-color="#231f20"></stop></linearGradient><path fill="url(#q)" d="M693.166 505.167c2.445-1.706 3.342-7.766 3.664-11.446-6.495.131-11.861.523-14.997 1.28-4.804 1.159-10.072 4.146-14.94 7.767 5.705 1.817 22.428 5.082 26.273 2.399z"></path><radialGradient id="r" cx="701.125" cy="510.709" r="7.029" gradientUnits="userSpaceOnUse"><stop offset="0" stop-color="#231f20"></stop><stop offset=".102" stop-color="#262228"></stop><stop offset=".264" stop-color="#2f2a3f"></stop><stop offset=".465" stop-color="#3d3865"></stop><stop offset=".699" stop-color="#504a99"></stop><stop offset=".956" stop-color="#6962db"></stop><stop offset="1" stop-color="#6d66e7"></stop></radialGradient><circle cx="704.417" cy="512.501" r="4" fill="url(#r)"></circle><radialGradient id="s" cx="714.521" cy="510.168" r="7.104" gradientUnits="userSpaceOnUse"><stop offset="0" stop-color="#231f20"></stop><stop offset=".102" stop-color="#262228"></stop><stop offset=".264" stop-color="#2f2a3f"></stop><stop offset=".465" stop-color="#3d3865"></stop><stop offset=".699" stop-color="#504a99"></stop><stop offset=".956" stop-color="#6962db"></stop><stop offset="1" stop-color="#6d66e7"></stop></radialGradient><circle cx="717.834" cy="511.418" r="3.75" fill="url(#s)"></circle><radialGradient id="t" cx="727.063" cy="509.668" r="7.024" gradientUnits="userSpaceOnUse"><stop offset="0" stop-color="#231f20"></stop><stop offset=".102" stop-color="#262228"></stop><stop offset=".264" stop-color="#2f2a3f"></stop><stop offset=".465" stop-color="#3d3865"></stop><stop offset=".699" stop-color="#504a99"></stop><stop offset=".956" stop-color="#6962db"></stop><stop offset="1" stop-color="#6d66e7"></stop></radialGradient><circle cx="730.25" cy="510.668" r="3.417" fill="url(#t)"></circle><path fill="#C0EAFB" d="M751.875 497.292a.5.5 0 0 1-.5-.5v-23.337a.5.5 0 0 1 1 0v23.337a.5.5 0 0 1-.5.5z"></path><linearGradient id="u" x1="656.25" x2="702.169" y1="287.576" y2="287.576" gradientUnits="userSpaceOnUse"><stop offset="0" stop-color="#ffe2a8"></stop><stop offset="1" stop-color="#728390"></stop></linearGradient><path fill="url(#u)" d="M656.25 302.5c3.646-.033 14.747-.458 22.75-8.75 10.375-10.75 6.75-31.25 6.75-31.25s3.757-.15 5.25 3.125c1.938 4.25-.625 12 1 12.875 2.71 1.459 3.375-4.875 5.5-3.875s1.838 5.873 1.375 10.25c-.438 4.133-3.313 8.026-2.313 9.313 1.313 1.688 4.438-2.563 5.438-.563s-2.625 5.875-5.813 7.938c-2.772 1.794-7.563 3.438-7.438 4.438s4.625 1 3.875 3-6.375 1.25-9.75 1.25-8.5-.125-11.25 2.125-15.374-9.876-15.374-9.876z"></path><path fill="#E8878E" d="M669.334 283.167a.5.5 0 0 1-.29-.908c.064-.046 6.423-4.618 6.124-9.394-.193-3.081-1.877-4.649-3.826-6.465-1.266-1.18-2.575-2.399-3.605-4.146-4.075-6.91.281-12.203 2.305-13.66a.499.499 0 1 1 .584.812c-1.816 1.308-5.723 6.076-2.027 12.34.957 1.622 2.212 2.791 3.426 3.922 2.019 1.88 3.925 3.656 4.143 7.134.334 5.333-6.263 10.073-6.544 10.272a.502.502 0 0 1-.29.093zM661.667 270.333a.501.501 0 0 1-.29-.092c-3.406-2.421-4.353-5.686-4.547-7.998-.274-3.264.817-6.264 1.983-7.43a.5.5 0 0 1 .707.707c-1.021 1.021-1.934 3.784-1.694 6.639.177 2.102 1.037 5.068 4.131 7.267a.5.5 0 0 1-.29.907zM700.501 308c-.015 0-.028 0-.043-.002a.5.5 0 0 1-.456-.54c.152-1.826 2.412-2.72 6.514-4.342 1.25-.494 2.682-1.061 4.289-1.743 2.266-.963 3.714-2.304 4.304-3.985.829-2.362-.225-4.739-.716-5.651a.501.501 0 0 1 .881-.475c.554 1.029 1.739 3.719.779 6.457-.688 1.958-2.321 3.497-4.857 4.574a172.98 172.98 0 0 1-4.313 1.753c-3.606 1.426-5.784 2.287-5.885 3.495a.499.499 0 0 1-.497.459z"></path><linearGradient id="v" x1="609.491" x2="631.64" y1="267.847" y2="267.847" gradientUnits="userSpaceOnUse"><stop offset="0" stop-color="#a281ff"></stop><stop offset="1" stop-color="#ff57bd"></stop></linearGradient><path fill="url(#v)" d="m610.259 244.467.796.06c.356.044.763.087 1.077.146.65.11 1.294.247 1.921.426 1.258.35 2.463.826 3.601 1.4 2.278 1.15 4.289 2.685 6.013 4.448 3.443 3.537 5.772 7.977 6.927 12.655a35.704 35.704 0 0 1 .629 14.029c-.752 4.691-2.427 9.443-5.791 13.595l-8.111-6.953c1.917-2.068 3.337-5.141 4.022-8.418.701-3.282.729-6.837.089-10.188-.608-3.246-2.047-6.329-4.151-8.744-1.051-1.203-2.268-2.229-3.58-2.986a11.49 11.49 0 0 0-2.022-.925 9.632 9.632 0 0 0-1.037-.295l-.429-.092c-.179-.032-.484-.062-.72-.093l.766-8.065z"></path><path fill="#FFA2BA" d="M618.017 258.492a.5.5 0 0 1-.061-.996c1.727-.217 4.825-1.24 6.186-5.663a.499.499 0 1 1 .955.294c-1.524 4.96-5.05 6.115-7.016 6.361a.468.468 0 0 1-.064.004zM625.087 269.314c-1.325 0-2.558-.215-3.435-.474a.5.5 0 1 1 .283-.959c2.181.642 6.818 1.026 8.741-2.121a.501.501 0 0 1 .854.522c-1.433 2.348-4.083 3.032-6.443 3.032zM627.639 280.905c-4.132 0-6.37-2.138-7.236-3.218a.5.5 0 1 1 .779-.626c.952 1.187 3.779 3.803 9.46 2.476a.5.5 0 1 1 .229.974 14.265 14.265 0 0 1-3.232.394z"></path><linearGradient id="w" x1="615.851" x2="650.971" y1="357.114" y2="357.114" gradientUnits="userSpaceOnUse"><stop offset="0" stop-color="#ff57bd"></stop><stop offset="1" stop-color="#fe6a77"></stop></linearGradient><path fill="url(#w)" d="M650.971 363.342c-.478-.924-.9-1.895-1.221-2.925-2.074-6.67-1.334-13.083-1.334-13.083s-8.917-2.833-16-4.333-16.565-3.521-16.565-3.521c.232 6.438 4.316 19.604 12.982 27.854 3.688 3.512 7.029 5.826 9.97 7.417 3.7-.004 9.697-4.69 12.168-11.409z"></path><linearGradient id="x" x1="638.803" x2="660.155" y1="374.288" y2="374.288" gradientUnits="userSpaceOnUse"><stop offset="0" stop-color="#c5188e"></stop><stop offset="1" stop-color="#9f36ad"></stop></linearGradient><path fill="url(#x)" d="M658.583 385.167c2.729-.667 1.25-9.417.417-11.417-.707-1.698-5.344-5.206-8.029-10.408-2.471 6.719-8.468 11.405-12.168 11.408 6.247 3.378 10.684 3.476 12.78 4.75 1.924 1.17 4.075 6.382 7 5.667z"></path><linearGradient id="y" x1="551.096" x2="570.726" y1="303.669" y2="303.669" gradientUnits="userSpaceOnUse"><stop offset="0" stop-color="#ff57bd"></stop><stop offset="1" stop-color="#fe6a77"></stop></linearGradient><path fill="url(#y)" d="M565.833 293.583c-3.919 2.278-6.523 3.547-13.083 3.75a38.26 38.26 0 0 1-1.083.016c1.022 3.382 1.165 9.146-.571 13.438 5.971 2.471 12.186 3.459 18.152 2.738 3.424-3.789.315-15.65-3.415-19.942z"></path><linearGradient id="z" x1="526.921" x2="552.422" y1="303.599" y2="303.599" gradientUnits="userSpaceOnUse"><stop offset="0" stop-color="#c5188e"></stop><stop offset="1" stop-color="#9f36ad"></stop></linearGradient><path fill="url(#z)" d="M551.667 297.349c-5.239 0-11.842-1.025-14.584-.933-4.333.146-6.896 1.833-8.771 3.771-1.603 1.656-2.021 4.958-.188 6.125 2.295 1.46 8.042-.646 11.208-1.063s5.667 3 11.667 5.5c.031.013.063.023.096.037 1.737-4.291 1.594-10.055.572-13.437z"></path><linearGradient id="A" x1="574.596" x2="667.671" y1="331.416" y2="297.539" gradientUnits="userSpaceOnUse"><stop offset="0" stop-color="#05c5da"></stop><stop offset="1" stop-color="#5860c4"></stop></linearGradient><path fill="url(#A)" d="M650.375 316.375c8.27-9.514 20.291-6.55 22.6-4.267-.132-.146-.257-.299-.392-.442-9.831-10.414-23.749-13.25-37.75-20.333-11.99-6.066-24.666-14.5-28.333-18.458 0 0-6.333 8.875-21.306 15.332-10.165 4.383-23.444 2.918-23.444 2.918s1.181 11.15 5.75 19.625c6.875 12.75 30.25 26 50.625 32.5 14.245 4.544 23.884 5.821 34 6.875-2.25-4.125-10.155-24.08-1.75-33.75z"></path><path fill="#00E2EC" d="M649.844 317.544a.43.43 0 0 1-.062-.004c-33.619-4.118-51.673-29.688-53.835-34.552a.5.5 0 0 1 .914-.406c2.124 4.779 19.888 29.905 53.042 33.966a.5.5 0 0 1-.059.996z"></path><linearGradient id="B" x1="646.593" x2="685.825" y1="338.872" y2="338.872" gradientUnits="userSpaceOnUse"><stop offset="0" stop-color="#00e2ec"></stop><stop offset="1" stop-color="#0090b2"></stop></linearGradient><path fill="url(#B)" d="M685.825 354.997c-2.602-7.788-2.25-31.08-12.851-42.888-2.309-2.284-14.33-5.248-22.6 4.267-8.405 9.67-.5 29.625 1.75 33.75 5.405 8.523 11.4 14.043 16.854 17.814 4.19-.774 14.339-6.781 16.847-12.943z"></path><linearGradient id="C" x1="668.98" x2="693.021" y1="368.875" y2="368.875" gradientUnits="userSpaceOnUse"><stop offset="0" stop-color="#a281ff"></stop><stop offset="1" stop-color="#ff57bd"></stop></linearGradient><path fill="url(#C)" d="M689.625 382.75c4.212-.182 3.604-10.628 2.875-15.125-.75-4.625-4.748-7.593-6.5-12.125-.061-.157-.117-.332-.175-.503-2.508 6.162-12.657 12.169-16.846 12.943 5.771 3.99 10.935 6.022 14.146 7.561 1.614.772 2.625 7.416 6.5 7.249z"></path><path fill="#00E2EC" d="M679.876 362.595a.498.498 0 0 1-.352-.145c-20.631-20.409-18.735-39.364-18.021-46.5a.498.498 0 1 1 .994.099c-.7 7.006-2.562 25.617 17.73 45.69a.5.5 0 0 1-.351.856z"></path><linearGradient id="D" x1="591.882" x2="613.397" y1="297.469" y2="318.984" gradientUnits="userSpaceOnUse"><stop offset="0" stop-color="#00e2ec"></stop><stop offset="1" stop-color="#0090b2"></stop></linearGradient><path fill="url(#D)" d="M619.375 293.625c-3.416-3.477-11-5.875-17.875-3-9.217 3.854-17.379 15.907-23.194 22.653 3.313.745 7.847 2.871 9.819 6.534 1.369 2.542 1.864 5.249 2.028 7.265 9.902-1.833 21.176-6.245 27.597-12.452 8.497-8.214 5.125-17.437 1.625-21z"></path><linearGradient id="E" x1="556.983" x2="590.153" y1="325.033" y2="325.033" gradientUnits="userSpaceOnUse"><stop offset="0" stop-color="#a281ff"></stop><stop offset="1" stop-color="#ff57bd"></stop></linearGradient><path fill="url(#E)" d="M578.306 313.278c-1.309 1.518-2.499 2.77-3.556 3.597-6.289 4.922-12.221 8.398-14.75 11-2.188 2.25-4.25 5.75-2.125 7.75 2.902 2.732 7.063.313 11.75-3.75 3.75-3.25 5.712-3.076 15.679-4.088a60.626 60.626 0 0 0 4.85-.709c-.164-2.016-.659-4.723-2.028-7.265-1.974-3.664-6.507-5.79-9.82-6.535z"></path><path fill="#00E2EC" d="M588.125 320.313a.5.5 0 0 1-.164-.972c13.389-4.647 28.842-21.407 30.961-25.928a.5.5 0 0 1 .906.425c-2.232 4.76-17.661 21.631-31.539 26.447a.496.496 0 0 1-.164.028z"></path><linearGradient id="F" x1="544.257" x2="563.004" y1="262.859" y2="262.859" gradientUnits="userSpaceOnUse"><stop offset="0" stop-color="#9f36ad"></stop><stop offset=".107" stop-color="#8d3399"></stop><stop offset=".404" stop-color="#602a65"></stop><stop offset=".662" stop-color="#3f243f"></stop><stop offset=".87" stop-color="#2a2028"></stop><stop offset="1" stop-color="#231f20"></stop></linearGradient><path fill="url(#F)" d="M544.257 265.238c2.118-.051 11.618-2.801 13.243-5.613s5.5-.188 5.5-.188.438 7.688-7.938 7.938-10.805-2.137-10.805-2.137z"></path><path fill="#D039A3" d="M550.007 265.863c.229-.687 1.556-1.832 3.931-2.676 2.564-.911 4.688-1.188 8.125-1.25-3.094 2.104-1.687 5.241-4.229 5.438-5.917.458-7.827-1.512-7.827-1.512z"></path><linearGradient id="G" x1="563.99" x2="575.798" y1="223.562" y2="235.37" gradientUnits="userSpaceOnUse"><stop offset="0" stop-color="#ffe2a8"></stop><stop offset="1" stop-color="#728390"></stop></linearGradient><path fill="url(#G)" d="M566.834 235.333c-.333-2.667.251-15.583 1.334-15.917s8.832 8.167 8.916 14.667c-3.583 1.917-10.25 1.25-10.25 1.25z"></path><linearGradient id="H" x1="548.057" x2="602.603" y1="223.024" y2="277.57" gradientUnits="userSpaceOnUse"><stop offset="0" stop-color="#ffe2a8"></stop><stop offset="1" stop-color="#728390"></stop></linearGradient><path fill="url(#H)" d="M530.75 240.375c.759-1.044 1.875-1 3-1s22.625.25 22.625.25S564.5 234 570.75 233.25s14.625.125 14.625.125 3.625-3.75 6.75-6.5 6.75-6.375 8.125-6 .371 10.08-1.25 14.875c-1.5 4.438-5.125 8.875-5.125 8.875s1.375 8.375 4.625 15.5c2.83 6.205 8 12.75 8 12.75s-6.368 10.007-19.25 14.625c-16.563 5.938-25.5 3.625-25.5 3.625s-.197-4.375-.125-8.125c.088-4.558.25-8.375.25-8.375s-5.576-.739-9.875-2.5c-5.188-2.125-7.625-4.063-7.743-6.887 1.047.32 3.998 1.103 8.868.137 8.188-1.625 8.625-5.25 8.625-5.25s-5.9 1.763-15.25-2c-10.25-4.125-18.749-13.625-15.75-17.75z"></path><linearGradient id="I" x1="530.14" x2="540.669" y1="244.29" y2="244.29" gradientUnits="userSpaceOnUse"><stop offset="0" stop-color="#653271"></stop><stop offset=".113" stop-color="#5b2f65"></stop><stop offset=".496" stop-color="#3d263f"></stop><stop offset=".805" stop-color="#2a2128"></stop><stop offset="1" stop-color="#231f20"></stop></linearGradient><path fill="url(#I)" d="M540.669 239.446c-3.609-.04-6.523-.071-6.919-.071-1.125 0-2.241-.044-3 1-1.493 2.054-.135 5.439 2.869 8.831 2.618-1.304 6.689-4.587 7.05-9.76z"></path><circle cx="565.084" cy="240.667" r="1.917" fill="#212F66"></circle><circle cx="564.553" cy="239.875" r=".729" fill="#0090B2"></circle><circle cx="577.418" cy="244.333" r="2.25" fill="#212F66"></circle><circle cx="576.5" cy="243.667" r=".792" fill="#0090B2"></circle><radialGradient id="J" cx="568.571" cy="244.469" r="44.506" gradientUnits="userSpaceOnUse"><stop offset="0" stop-color="#4e40af" stop-opacity="0"></stop><stop offset=".11" stop-color="#5446b2" stop-opacity=".044"></stop><stop offset=".262" stop-color="#6558b9" stop-opacity=".105"></stop><stop offset=".439" stop-color="#8076c6" stop-opacity=".175"></stop><stop offset=".634" stop-color="#a69fd7" stop-opacity=".254"></stop><stop offset=".843" stop-color="#d6d3ed" stop-opacity=".337"></stop><stop offset="1" stop-color="#fff" stop-opacity=".4"></stop></radialGradient><path fill="url(#J)" d="M592.064 206.676c-20.872-12.975-48.312-6.573-61.286 14.299s-6.573 48.312 14.3 61.287c20.872 12.975 48.312 6.573 61.286-14.299s6.574-48.312-14.3-61.287zm8.496 58.091c-10.381 16.701-32.336 21.823-49.036 11.441-16.7-10.382-21.823-32.336-11.44-49.037 10.381-16.7 32.336-21.823 49.036-11.441 16.699 10.381 21.822 32.336 11.44 49.037z"></path><path fill="#FFF" d="m565.525 210.913-1.104.246-1.017.271a41.11 41.11 0 0 0-2.044.643 2.013 2.013 0 1 1-.87-3.904 44.277 44.277 0 0 1 2.371-.194l1.209-.042 1.131.004a1.507 1.507 0 0 1 .324 2.976zM555.181 214.097l-1.129.501-1.021.496a38.85 38.85 0 0 0-2.047 1.13 33.171 33.171 0 0 0-3.835 2.684 33.437 33.437 0 0 0-6.378 6.869 1.689 1.689 0 0 1-2.805-1.884 37 37 0 0 1 6.813-7.813 36.786 36.786 0 0 1 6.422-4.455l1.188-.622 1.117-.538a2 2 0 0 1 1.735 3.604l-.06.028z" opacity=".5"></path><linearGradient id="K" x1="561.66" x2="609.077" y1="282.884" y2="282.884" gradientUnits="userSpaceOnUse"><stop offset="0" stop-color="#ff57bd"></stop><stop offset="1" stop-color="#fe6a77"></stop></linearGradient><path fill="url(#K)" d="M609.077 275.22c-1.075-.883-1.962-1.681-2.577-2.345 0 0-.738-.936-1.809-2.432-10.01 13.947-26.844 20.534-43.031 17.997.04 1.577.09 2.685.09 2.685s.16 1.503.587 3.821c17.568 2.159 35.571-4.979 46.74-19.726z"></path><path fill="#FFF" d="M611.71 233.547a44.7 44.7 0 0 0-6.519-14.166 44.115 44.115 0 0 0-10.996-10.994c-4.262-2.996-9.023-5.252-14.05-6.596a44.07 44.07 0 0 0-15.447-1.323c-10.351.925-20.317 5.617-27.545 13.064-7.261 7.404-11.801 17.418-12.474 27.755-.792 10.323 2.21 20.897 8.343 29.266 6.09 8.397 15.266 14.497 25.372 16.905 10.104 2.451 21.058 1.136 30.337-3.587a44.01 44.01 0 0 0 12.457-9.304 44.959 44.959 0 0 0 8.504-13.072 45.08 45.08 0 0 1-8.323 13.238 44.388 44.388 0 0 1-12.415 9.575c-9.351 4.839-20.443 6.228-30.713 3.798-10.272-2.391-19.637-8.534-25.891-17.06-6.293-8.494-9.428-19.267-8.666-29.83.745-10.57 5.438-20.762 12.876-28.266 7.407-7.55 17.57-12.261 28.079-13.143 10.511-.945 21.294 2.027 29.837 8.182a44.515 44.515 0 0 1 10.916 11.254 44.868 44.868 0 0 1 6.318 14.304z"></path><linearGradient id="L" x1="601.336" x2="613.066" y1="247.52" y2="247.52" gradientUnits="userSpaceOnUse"><stop offset="0" stop-color="#05c5da"></stop><stop offset="1" stop-color="#0090b2"></stop></linearGradient><path fill="url(#L)" d="M611.698 233.55a15.077 15.077 0 0 0-4.661 2.531c-6.547 5.234-7.612 14.787-2.377 21.336a15.085 15.085 0 0 0 5.023 4.074c3.76-9.05 4.316-18.849 2.015-27.941z"></path><linearGradient id="M" x1="190.805" x2="215.948" y1="327.453" y2="327.453" gradientUnits="userSpaceOnUse"><stop offset="0" stop-color="#05c5da"></stop><stop offset="1" stop-color="#5860c4"></stop></linearGradient><path fill="url(#M)" d="M210.687 298.64c-.597.583-1.308 1.541-1.957 2.561a33.316 33.316 0 0 0-1.821 3.292 43.705 43.705 0 0 0-2.722 7.241c-1.392 4.984-1.925 10.155-1.484 15.134a37.15 37.15 0 0 0 4.135 14.11c2.279 4.352 5.413 8.271 9.11 11.726l-10.646 10.342c-4.325-4.797-8.05-10.336-10.603-16.453a49.841 49.841 0 0 1-3.894-19.265c-.008-6.537 1.25-12.931 3.473-18.877a53.836 53.836 0 0 1 4.111-8.603 42.303 42.303 0 0 1 2.725-4.048c1.025-1.316 2.115-2.636 3.7-3.939l5.873 6.779z"></path><path fill="#00E2EC" d="M203.603 311.587c-4.92 0-8.208-3.757-9.135-4.961a.5.5 0 0 1 .793-.609c.898 1.169 4.208 4.953 9.081 4.54a.5.5 0 0 1 .084.996c-.279.023-.554.034-.823.034zM196.936 327.294c-2.793 0-5.005-1.053-6.348-1.914a.5.5 0 0 1 .54-.842c2.003 1.285 6.125 3.036 11.233.31a.499.499 0 1 1 .47.882c-2.146 1.146-4.136 1.564-5.895 1.564zM195.226 345.771c-.394 0-.763-.013-1.103-.032a.5.5 0 1 1 .058-.998c2.993.175 8.498-.259 11.707-5.097a.5.5 0 1 1 .833.553c-3.117 4.699-8.167 5.574-11.495 5.574z"></path><linearGradient id="N" x1="533.316" x2="604.359" y1="509.874" y2="509.874" gradientUnits="userSpaceOnUse"><stop offset="0" stop-color="#05c5da"></stop><stop offset="1" stop-color="#5860c4"></stop></linearGradient><path fill="url(#N)" d="M604.334 522.333c-1-3.334-21.667-3.333-24.334-3.667-1.469-.184-6.578-16.794-15.875-35.894-15.791 2.561-27.625 15.894-30.809 21.106l.002.005c18.42 15.864 31.178 31.186 37.516 32.949 5.845 1.627 34.5-11.165 33.5-14.499z"></path><linearGradient id="O" x1="441.166" x2="564.125" y1="459.775" y2="459.775" gradientUnits="userSpaceOnUse"><stop offset="0" stop-color="#ff57bd"></stop><stop offset="1" stop-color="#fe6a77"></stop></linearGradient><path fill="url(#O)" d="M564.125 482.772c-7.587-15.585-17.962-32.826-31.428-44.157-17.688-14.884-36.03-21.615-50.364-22.948 0 0-19.413 8.26-29.166 17.5-9.5 9-10.167 16.168-12.001 28.667 18.833 1.166 35.504 6.009 59.501 18.999 12.305 6.661 23.219 14.927 32.651 23.051l-.002-.005c3.184-5.213 15.018-18.546 30.809-21.107z"></path><path fill="#9F36AD" d="M529.501 483.5a.996.996 0 0 1-.82-.427c-19.836-28.385-67.271-45.246-77.604-46.993a1 1 0 0 1 .334-1.972c10.5 1.775 58.719 18.928 78.908 47.819a1.001 1.001 0 0 1-.818 1.573z"></path><linearGradient id="P" x1="358.256" x2="358.256" y1="278.674" y2="335.388" gradientUnits="userSpaceOnUse"><stop offset="0" stop-color="#fe6a77"></stop><stop offset="1" stop-color="#c91c91"></stop></linearGradient><path fill="url(#P)" d="M361.25 280.5s-14.625-2.75-40.375-1.5a223.416 223.416 0 0 0-21.004 1.995 62.647 62.647 0 0 1-7.004 16.648c4.633 1.107 8.633 1.607 28.133 10.982s48.381 28.572 58.875 26.625c12.125-2.25 42.5-13.375 43.75-30.125 1.312-17.578-62.375-24.625-62.375-24.625z"></path><linearGradient id="Q" x1="403.495" x2="423.645" y1="310.555" y2="310.555" gradientUnits="userSpaceOnUse"><stop offset="0" stop-color="#05c5da"></stop><stop offset="1" stop-color="#5860c4"></stop></linearGradient><path fill="url(#Q)" d="M423.625 305.125c.298-3.997-2.771-7.448-7.681-10.397-4.436 3.068-9.892 8.462-11.61 16.022-1.529 6.728-.638 12.567.093 15.631 9.856-5.222 18.542-12.462 19.198-21.256z"></path><path fill="#9F36AD" d="M365.833 292.75a.756.756 0 0 1-.233-.037c-25.768-8.427-66.914-6.001-70.004-4.844a.75.75 0 1 1-.526-1.404c3.263-1.224 44.34-3.895 70.996 4.823a.75.75 0 0 1-.233 1.462z"></path><linearGradient id="R" x1="360.499" x2="423.965" y1="295.059" y2="295.059" gradientUnits="userSpaceOnUse"><stop offset="0" stop-color="#ff57bd"></stop><stop offset="1" stop-color="#fe6a77"></stop></linearGradient><path fill="url(#R)" d="M422.875 298.625c-3.813-9.938-20.089-17.978-30.226-23.001-2.936-1.455-6.137-2.831-9.408-4.164-.431 3.232-1.828 8.397-6.242 12.707-5.311 5.184-12.157 6.116-16.501 6.181 3.089 3.812 6.277 7.359 9.501 10.028 8.13 6.732 24.723 17.044 37.258 18.177 5.387.487 10.137-.642 12.919-4.64 1.994-2.867 5.609-7.704 2.699-15.288z"></path><linearGradient id="S" x1="403.502" x2="423.965" y1="305.728" y2="305.728" gradientUnits="userSpaceOnUse"><stop offset="0" stop-color="#05c5da"></stop><stop offset="1" stop-color="#0090b2"></stop></linearGradient><path fill="url(#S)" d="M420.177 313.912c1.994-2.866 5.608-7.702 2.698-15.287-.777-2.025-2.078-3.97-3.732-5.828-4.507 2.314-12.639 8.403-14.809 17.953a33.995 33.995 0 0 0-.832 7.202c1.28.271 2.542.49 3.756.6 5.387.487 10.137-.642 12.919-4.64z"></path><linearGradient id="T" x1="321.944" x2="383.242" y1="257.147" y2="257.147" gradientUnits="userSpaceOnUse"><stop offset="0" stop-color="#00e2ec"></stop><stop offset="1" stop-color="#0090b2"></stop></linearGradient><path fill="url(#T)" d="M383.242 271.46c-12.187-4.969-25.353-9.343-29.492-14.96-4.121-5.592-2.563-15.188-4.375-22-1.352-5.081-5.563-11.188-9.75-10.5-5.095.836-5.875 7.75-4.875 13.25s2.25 10-.875 10.75c-2.677.643-6.151-1.51-7.75-2.125-1.083-.417-5.346-.521-3.875 4.5 1.917 6.542 13.333 11.815 19.875 17.375 5.168 4.393 11.526 14.147 18.374 22.597 4.344-.065 11.19-.997 16.501-6.181 4.414-4.309 5.811-9.474 6.242-12.706z"></path><linearGradient id="U" x1="273.355" x2="395.409" y1="431.338" y2="328.922" gradientUnits="userSpaceOnUse"><stop offset="0" stop-color="#fe6a77"></stop><stop offset="1" stop-color="#ff57bd"></stop></linearGradient><path fill="url(#U)" d="M443.5 387.25s-16.833-25.917-53.125-52.75c-39.32-29.072-94.609-42.238-99.875-42 0 0-10.25 13.25-21.5 20.25s-34.5 7.75-34.5 7.75 3.75 31.875 20 70.375c5.235 12.403 10.872 21.46 17.653 33.343C292 459 323.5 495 365.75 497.25c-6.083-33.917 19.75-85.25 77.75-110z"></path><path fill="#FFA2BA" d="M412.136 406.254a.995.995 0 0 1-.779-.373c-42.761-53.082-94.836-88.645-126.437-102.97a1 1 0 1 1 .826-1.822c31.8 14.416 84.186 50.182 127.168 103.538a.999.999 0 0 1-.778 1.627zM365.833 476.778a.95.95 0 0 1-.119-.007c-50.191-5.92-82.86-56.743-84.227-58.904a1 1 0 1 1 1.691-1.068c11.396 18.023 43.362 53.338 82.771 57.986a1 1 0 0 1-.116 1.993z"></path><linearGradient id="V" x1="310.006" x2="378.168" y1="377.042" y2="319.848" gradientUnits="userSpaceOnUse"><stop offset="0" stop-color="#c5188e"></stop><stop offset="1" stop-color="#ff57bd"></stop></linearGradient><path fill="url(#V)" d="M295.167 354.333c-1.833 9 31.667 39.542 41.333 39.542 9.379 0 43.737-38.777 54.11-59.199-.08-.059-.155-.118-.235-.176-14.4-10.647-30.941-19.159-46.384-25.662-14.195 8.605-46.814 35.629-48.824 45.495z"></path><circle cx="334.246" cy="356.944" r="8.753" fill="#1AA9E8"></circle><circle cx="347.154" cy="344.037" r="3.82" fill="#1AA9E8"></circle><path fill="#1AA9E8" d="M334.246 376.194c-10.614 0-19.25-8.636-19.25-19.25s8.636-19.25 19.25-19.25 19.25 8.636 19.25 19.25-8.636 19.25-19.25 19.25zm0-36.5c-9.512 0-17.25 7.738-17.25 17.25s7.738 17.25 17.25 17.25 17.25-7.738 17.25-17.25-7.738-17.25-17.25-17.25z"></path><path fill="#9F36AD" d="M356.214 338.379a2 2 0 0 1-1.436-3.392l14.227-14.681a2 2 0 0 1 2.872 2.784l-14.227 14.681a1.992 1.992 0 0 1-1.436.608zM347.265 330.342a1.999 1.999 0 0 1-1.425-3.402l12.221-12.425a2 2 0 0 1 2.851 2.805l-12.221 12.425a1.995 1.995 0 0 1-1.426.597zM366.776 345.884a2.001 2.001 0 0 1-1.495-3.328l14.119-15.91a2.001 2.001 0 0 1 2.992 2.656l-14.119 15.91a1.998 1.998 0 0 1-1.497.672z"></path><linearGradient id="W" x1="364.881" x2="560.134" y1="439.606" y2="439.606" gradientUnits="userSpaceOnUse"><stop offset="0" stop-color="#c91c91"></stop><stop offset="1" stop-color="#fe6a77"></stop></linearGradient><path fill="url(#W)" d="M560.134 404.43c-28.154-9.844-63.22-23.57-87.134-22.68-20 .745-29.5 5.5-29.5 5.5-58 24.75-83.833 76.083-77.75 110C439.922 501.2 461.688 457.557 501 444c15.513-5.35 34.665-5.966 52.164-5.613l-.001-.003c-4.17-18.283 4.504-30.217 6.971-33.954z"></path><linearGradient id="X" x1="443.5" x2="498.888" y1="395.35" y2="395.35" gradientUnits="userSpaceOnUse"><stop offset="0" stop-color="#00e2ec"></stop><stop offset="1" stop-color="#0090b2"></stop></linearGradient><path fill="url(#X)" d="M472.75 408.834c20.962-1.823 26.435-17.315 26.126-24.031-9.375-2.114-18.201-3.339-25.876-3.053-20 .745-29.5 5.5-29.5 5.5.917 10.584 9.511 23.301 29.25 21.584z"></path><path fill="#9F36AD" d="M470.55 400.5a1.5 1.5 0 0 1-1.5-1.492l-.092-17.367a1.501 1.501 0 0 1 1.492-1.508h.008a1.5 1.5 0 0 1 1.5 1.492l.092 17.367a1.501 1.501 0 0 1-1.492 1.508h-.008zM481.922 400.484a1.5 1.5 0 0 1-1.5-1.492l-.086-16.938a1.5 1.5 0 0 1 1.492-1.508h.008a1.5 1.5 0 0 1 1.5 1.492l.086 16.938a1.5 1.5 0 0 1-1.492 1.508h-.008zM459.429 400.563a1.5 1.5 0 0 1-1.498-1.446l-.569-15.97a1.501 1.501 0 0 1 2.998-.108l.569 15.97a1.501 1.501 0 0 1-1.445 1.553l-.055.001z"></path><path fill="#FFA2BA" d="M376.92 477.423c-3.706 0-7.442-.208-11.205-.651a1 1 0 0 1 .234-1.986c39.85 4.703 77.171-17.682 101.866-32.492 8.914-5.346 15.954-9.568 21.337-11.563 17.564-6.511 43.968-4.986 63.025-2.561a1 1 0 1 1-.252 1.984c-18.838-2.398-44.896-3.918-62.078 2.451-5.208 1.931-12.528 6.32-21.004 11.403-22.613 13.562-55.715 33.415-91.923 33.415z"></path><linearGradient id="Y" x1="552.047" x2="622.203" y1="420.01" y2="420.01" gradientUnits="userSpaceOnUse"><stop offset="0" stop-color="#00e2ec"></stop><stop offset="1" stop-color="#0090b2"></stop></linearGradient><path fill="url(#Y)" d="M599.5 437.5c4.351-1.826 10.168-5.365 16.75-16.25 4.333-7.166 7.667-20.576 5-20.5-5.833.167-12.764 12.453-22.25 13.25-8.094.68-22.281-3.772-38.866-9.57-2.467 3.737-11.141 15.671-6.971 33.954l.001.003c20.666.415 39.025 2.181 46.336-.887z"></path><circle cx="572" cy="426" r="6" fill="#9F36AD"></circle><linearGradient id="Z" x1="198.761" x2="276.32" y1="405.011" y2="405.011" gradientUnits="userSpaceOnUse"><stop offset="0" stop-color="#fe6a77"></stop><stop offset="1" stop-color="#c91c91"></stop></linearGradient><path fill="url(#Z)" d="M266.5 451.5c2.25-21.25 9-32.875 9.75-49.5.818-18.142-5.106-70.836-39-78.25-6-1.313-12.75.063-12.75.063C210.833 343 197.667 371 198.833 407c1.286 39.682 24.307 65.857 38 79.5l.34.339c4.284-4.033 14.532-10.892 29.542-11.174-.783-8.036-1.022-16.548-.215-24.165z"></path><linearGradient id="aa" x1="198.828" x2="220.246" y1="430.255" y2="430.255" gradientUnits="userSpaceOnUse"><stop offset="0" stop-color="#00e2ec"></stop><stop offset="1" stop-color="#0090b2"></stop></linearGradient><path fill="url(#aa)" d="M218.75 423.875c-4.232-13.379-14.699-16.905-19.922-17.163l.006.288c.6 18.504 5.927 34.069 12.83 46.798 5.762-4.223 11.336-16.489 7.086-29.923z"></path><path fill="#9F36AD" d="M202.52 431.675a1.501 1.501 0 0 1-.422-2.939l9.916-2.911a1.5 1.5 0 0 1 .845 2.879l-9.916 2.911c-.141.04-.284.06-.423.06zM200.734 423.652a1.501 1.501 0 0 1-.422-2.939l9.44-2.771a1.5 1.5 0 0 1 .845 2.879l-9.44 2.771c-.141.041-.283.06-.423.06zM204.946 440.127a1.5 1.5 0 0 1-.485-2.919l9.531-3.259a1.497 1.497 0 0 1 1.905.934 1.499 1.499 0 0 1-.934 1.904l-9.531 3.259a1.48 1.48 0 0 1-.486.081z"></path><path fill="#FFA2BA" d="M243.001 471.667a.998.998 0 0 1-.858-.485c-.172-.286-.399-.654-.675-1.103-18.498-29.997-23.152-56.096-23.8-72.707-1.473-37.768 9.622-64.643 16.411-74.568a1 1 0 1 1 1.651 1.129c-6.649 9.723-17.516 36.115-16.063 73.361.639 16.372 5.235 42.108 23.504 71.735.281.457.513.832.688 1.123a1 1 0 0 1-.858 1.515z"></path><linearGradient id="ab" x1="237.173" x2="284.501" y1="512.771" y2="512.771" gradientUnits="userSpaceOnUse"><stop offset="0" stop-color="#00e2ec"></stop><stop offset="1" stop-color="#0090b2"></stop></linearGradient><path fill="url(#ab)" d="M260.688 514.625c2.104 6.695-3.438 13.542-3.813 19.5-.424 6.736 7.546 15.971 11.75 15.75 3.958-.208 6-4.875 5.875-8.125s-1.625-11 1.25-11.625 2.032 5.135 3.375 7.125c1.125 1.667 3.958 1.583 4.75-.75.808-2.382 1.125-9.083-.875-13.25-2.444-5.093-7-10.625-10.25-18-2.017-4.577-4.755-16.442-6.035-29.585-15.009.282-25.257 7.141-29.542 11.174 16.348 16.285 21.466 21.269 23.515 27.786z"></path><linearGradient id="ac" x1="256.239" x2="261.833" y1="279.807" y2="311.535" gradientUnits="userSpaceOnUse"><stop offset="0" stop-color="#c16846"></stop><stop offset=".265" stop-color="#d27565"></stop><stop offset=".531" stop-color="#de7f7b"></stop><stop offset=".781" stop-color="#e58589"></stop><stop offset="1" stop-color="#e8878e"></stop></linearGradient><path fill="url(#ac)" d="M263.625 280.625c1.431 2.25 9.625 11.375 14.25 13.875-1.375 4.25-7 11-15.875 15.125-7.264 3.376-16.313 4.75-16.313 4.75s-3.438-8.375-5.563-18.313c-1.443-6.749-2-13.063-2-13.063s5.813 3.188 13.125 3c7.204-.184 12.376-5.374 12.376-5.374z"></path><linearGradient id="ad" x1="223.77" x2="261.693" y1="284.776" y2="252.955" gradientUnits="userSpaceOnUse"><stop offset="0" stop-color="#e8878e"></stop><stop offset="1" stop-color="#f4bea3"></stop></linearGradient><path fill="url(#ad)" d="M264.583 266.083c-2.917-11.667-11.833-23.5-14.25-26.667h-6.917l-24.417 15-.75 12.833s3.357 4.274 8.732 9.952c-2.097.859-3.565 2.851-3.565 5.172 0 3.107 2.63 5.625 5.875 5.625 2.375 0 4.415-1.351 5.341-3.292 8.8 7.275 20.495 7.174 26.034 3.375 5.817-3.986 6.834-10.331 3.917-21.998z"></path><circle cx="242.5" cy="265.25" r="2" fill="#212F66"></circle><circle cx="256.583" cy="255.667" r="1.833" fill="#212F66"></circle><linearGradient id="ae" x1="249.482" x2="261.045" y1="262.167" y2="262.167" gradientUnits="userSpaceOnUse"><stop offset="0" stop-color="#ff57bd"></stop><stop offset="1" stop-color="#fe6a77"></stop></linearGradient><path fill="url(#ae)" d="M249.545 256.284c1.424-1.601 11.762 6.861 11.495 8.643-.267 1.782-2.915 3.011-4.728 3.323-1.977-3.563-7.48-11.164-6.767-11.966z"></path><path fill="#954374" d="M256.719 278.084a5.09 5.09 0 0 1-3.185-1.107.5.5 0 1 1 .62-.784 4.1 4.1 0 0 0 2.564.892c2.292 0 4.156-1.878 4.156-4.188 0-.284-.028-.569-.084-.845a.499.499 0 1 1 .979-.199c.07.342.105.693.105 1.044.001 2.86-2.311 5.187-5.155 5.187z"></path><linearGradient id="af" x1="210.463" x2="257.06" y1="253.615" y2="253.615" gradientUnits="userSpaceOnUse"><stop offset="0" stop-color="#994574"></stop><stop offset="1" stop-color="#43256f"></stop></linearGradient><path fill="url(#af)" d="M255.833 225.75c-2.583-2.417-6.417.417-8.75 3s-4.174 5.592-6.333 5.417c-3.083-.25-2.018-7.616-5.833-7.167-5.667.667-8.5 13.833-10.333 14.833s-3.37-3.142-6.25-1.333c-3.583 2.25-2.476 12.904-2.917 15.5-.297 1.747-5.433 4.929-4.917 11.25.622 7.615 8.124 13.27 12.918 15.148l-.001-.023c0-2.665 1.938-4.893 4.537-5.473-.022-2.727-.542-5.85-1.204-8.151-1.583-5.5-5.207-9.771-5.207-9.771 2.333-.25 16.791-4.562 26.874-13.395 8.615-7.548 10.136-17.291 7.416-19.835z"></path><radialGradient id="ag" cx="238.767" cy="264.892" r="47.02" gradientUnits="userSpaceOnUse"><stop offset="0" stop-color="#635ad5" stop-opacity="0"></stop><stop offset=".12" stop-color="#6960d7" stop-opacity=".048"></stop><stop offset=".288" stop-color="#7a72db" stop-opacity=".115"></stop><stop offset=".482" stop-color="#9690e3" stop-opacity=".193"></stop><stop offset=".698" stop-color="#bdb9ed" stop-opacity=".279"></stop><stop offset=".927" stop-color="#eeedfa" stop-opacity=".371"></stop><stop offset="1" stop-color="#fff" stop-opacity=".4"></stop></radialGradient><path fill="url(#ag)" d="M238.881 218.156c-17.058 0-31.992 9.088-40.229 22.686 7.762-7.028 18.057-11.311 29.354-11.311 24.163 0 43.75 19.587 43.75 43.75 0 15.81-8.388 29.659-20.954 37.346 20.184-5.277 35.079-23.633 35.079-45.471 0-25.957-21.043-47-47-47z"></path><linearGradient id="ah" x1="191.881" x2="267.764" y1="266.72" y2="266.72" gradientUnits="userSpaceOnUse"><stop offset="0" stop-color="#00e2ec"></stop><stop offset="1" stop-color="#0090b2"></stop></linearGradient><path fill="url(#ah)" d="M250.904 305.348c-15.064 0-31.353-5.371-39.57-16.681-14.833-20.417-5.458-58.042 10.688-67.383-17.625 6.778-30.14 23.858-30.14 43.872 0 25.958 21.042 47 47 47 10.893 0 20.913-3.716 28.883-9.936a46.88 46.88 0 0 1-16.861 3.128z"></path><linearGradient id="ai" x1="203.952" x2="214.966" y1="296.631" y2="287.389" gradientUnits="userSpaceOnUse"><stop offset="0" stop-color="#a281ff"></stop><stop offset=".095" stop-color="#b17af5"></stop><stop offset=".35" stop-color="#d36bdd"></stop><stop offset=".593" stop-color="#eb60cb"></stop><stop offset=".816" stop-color="#fa59c1"></stop><stop offset="1" stop-color="#ff57bd"></stop></linearGradient><path fill="url(#ai)" d="M204.021 282.324c-2.915 0-5.623.875-7.887 2.367a47.17 47.17 0 0 0 19.026 21.036 14.294 14.294 0 0 0 3.216-9.048c.001-7.929-6.426-14.355-14.355-14.355z"></path><path fill="#FFF" d="m262.126 234.452 1.004.643 1.038.72c.671.485 1.33.989 1.978 1.513a1.8 1.8 0 1 1-2.51 2.561 42.517 42.517 0 0 0-1.516-1.7l-.783-.802-.865-.82a1.348 1.348 0 0 1 1.654-2.115zM271.253 243.104a38.867 38.867 0 0 1 4.703 9.886 38.884 38.884 0 0 1 1.757 10.779 1.69 1.69 0 0 1-3.377.119 35.328 35.328 0 0 0-1.886-9.747 35.113 35.113 0 0 0-4.519-8.809 2.001 2.001 0 1 1 3.297-2.266l.025.038z" opacity=".5"></path><linearGradient id="aj" x1="222.908" x2="299.871" y1="304.575" y2="304.575" gradientUnits="userSpaceOnUse"><stop offset="0" stop-color="#00e2ec"></stop><stop offset="1" stop-color="#0090b2"></stop></linearGradient><path fill="url(#aj)" d="M299.871 280.995c-8.251 1.188-14.434 2.589-18.184 3.563-7.388 16.274-23.77 27.599-42.807 27.599-1.71 0-3.397-.097-5.061-.275-4.071 4.447-8.475 10.657-10.913 14.227a63.108 63.108 0 0 0 15.973 2.048c29.325-.001 53.967-20.035 60.992-47.162z"></path><path fill="#FFF" d="M222.017 221.272c5.115-2.09 10.634-3.194 16.179-3.352a47.16 47.16 0 0 1 16.395 2.523c10.559 3.588 19.679 11.146 25.322 20.774 5.647 9.629 7.672 21.326 5.622 32.265a47.142 47.142 0 0 1-5.859 15.52c-2.877 4.745-6.568 8.99-10.897 12.422 8.401-7.171 14.197-17.258 15.999-28.076.901-5.404.905-10.954-.062-16.333a46.27 46.27 0 0 0-5.665-15.293 46.815 46.815 0 0 0-10.532-12.457c-4.206-3.498-9.033-6.235-14.182-8.098-10.308-3.724-21.944-3.681-32.32.105z"></path><linearGradient id="ak" x1="318.793" x2="347.719" y1="235.1" y2="235.1" gradientUnits="userSpaceOnUse"><stop offset="0" stop-color="#653271"></stop><stop offset=".113" stop-color="#5b2f65"></stop><stop offset=".496" stop-color="#3d263f"></stop><stop offset=".805" stop-color="#2a2128"></stop><stop offset="1" stop-color="#231f20"></stop></linearGradient><path fill="url(#ak)" d="M347.689 251.309a.96.96 0 0 1-.693 1.165l-16.609 4.602a.96.96 0 0 1-1.165-.693l-10.4-36.492a.96.96 0 0 1 .692-1.165l17.609-5.602a.958.958 0 0 1 1.164.692l9.402 37.493z"></path><linearGradient id="al" x1="320.493" x2="345.69" y1="221.575" y2="246.772" gradientUnits="userSpaceOnUse"><stop offset="0" stop-color="#84dbf1"></stop><stop offset="1" stop-color="#ffe2a8"></stop></linearGradient><path fill="url(#al)" d="m343.787 248.675-13.2 3.736-9.147-31.785 14.128-4.717z"></path><path fill="#C7A0F6" d="M368.543 176.495a3 3 0 0 1-2.054 3.712l-67.243 20.345a3 3 0 0 1-3.712-2.054l-5.941-21.663a3 3 0 0 1 2.055-3.712l67.242-19.845a3 3 0 0 1 3.712 2.055l5.941 21.162z"></path><path fill="#FDE1A7" d="M359.721 155.16c.442 0 .837.298.957.713l5.944 21.175a1.008 1.008 0 0 1-.711 1.245l-67.216 20.337a.999.999 0 0 1-1.231-.661l-5.947-21.687a.995.995 0 0 1 .086-.761c.075-.135.252-.377.612-.481l67.229-19.841a1.09 1.09 0 0 1 .277-.039m0-2c-.274 0-.553.038-.83.118l-67.242 19.845a3.001 3.001 0 0 0-2.055 3.712l5.941 21.663a3.001 3.001 0 0 0 3.712 2.054l67.243-20.345a3 3 0 0 0 2.054-3.712l-5.94-21.163a3.005 3.005 0 0 0-2.883-2.172z"></path><circle cx="330.5" cy="227.833" r="3.667" fill="#FE697A"></circle><path fill="#FDE1A7" d="m330.501 228.583-.064-.002a.751.751 0 0 1-.685-.811l3.177-37.699a.76.76 0 0 1 .811-.685.751.751 0 0 1 .685.811l-3.177 37.699a.75.75 0 0 1-.747.687z"></path><linearGradient id="am" x1="332.605" x2="347.179" y1="177.454" y2="177.454" gradientUnits="userSpaceOnUse"><stop offset="0" stop-color="#67b4d8"></stop><stop offset="1" stop-color="#c7dff2"></stop></linearGradient><path fill="url(#am)" d="m332.605 174.697 14.574 5.513"></path><linearGradient id="an" x1="317.552" x2="326.236" y1="183.036" y2="183.036" gradientUnits="userSpaceOnUse"><stop offset="0" stop-color="#67b4d8"></stop><stop offset="1" stop-color="#c7dff2"></stop></linearGradient><path fill="url(#an)" d="m317.552 189.336 8.684-12.599"></path><g fill="#FFF"><path d="m341.561 164.518-7.736 9.839 12.186 4.61zM339.783 164.352l-25.1 7.731 15.063 5.036zM317.813 187.635l7.239-10.503-11.676-3.903z"></path><path d="m332.854 175.593-2.255 2.868a.749.749 0 0 1-.828.248l-3.238-1.083-7.138 10.356 25.471-7.846-12.012-4.543z"></path></g><linearGradient id="ao" x1="303.179" x2="368.507" y1="410.708" y2="410.708" gradientUnits="userSpaceOnUse"><stop offset="0" stop-color="#fde1a7"></stop><stop offset="1" stop-color="#f9a144"></stop></linearGradient><path fill="url(#ao)" d="M368.486 415.04c.223 2.961-1.319 4.211-3.249 4.844l-50.92 17.109a4.125 4.125 0 0 1-4.843-3.248l-6.214-31.539c-.441-2.234.948-4.456 3.184-5.167 0 0 15.493-4.601 25.681-6.664 9.934-2.012 28.24-5.946 28.24-5.946 2.234-.439 3.885.863 4.448 3.446l3.673 27.165z"></path><path fill="#C44B5F" d="M339.833 415.083a.747.747 0 0 1-.25-.043l-36.654-12.966a.75.75 0 1 1 .5-1.414l36.161 12.791 23.535-28.439a.754.754 0 0 1 1.056-.1.751.751 0 0 1 .1 1.057l-23.869 28.843a.756.756 0 0 1-.579.271zM311.457 437.264a.75.75 0 0 1-.608-1.189l15.376-21.347a.751.751 0 0 1 1.217.877l-15.376 21.347a.75.75 0 0 1-.609.312zM367.802 418.896c-.1 0-.201-.02-.298-.062l-18.803-8.146a.75.75 0 1 1 .596-1.377l18.803 8.146a.75.75 0 0 1-.298 1.439z"></path><linearGradient id="ap" x1="467.171" x2="520.823" y1="210.178" y2="210.178" gradientUnits="userSpaceOnUse"><stop offset="0" stop-color="#fde1a7"></stop><stop offset="1" stop-color="#f9a144"></stop></linearGradient><path fill="url(#ap)" d="M520.764 214.471c.344 2.384-.835 3.479-2.361 4.098l-40.254 13.64a3.345 3.345 0 0 1-4.098-2.361l-6.761-25.174c-.479-1.783.523-3.657 2.292-4.355 0 0 12.281-4.573 20.409-6.802 7.926-2.173 20.52-5.363 20.52-5.363 1.784-.479 3.19.485 3.788 2.544l6.465 23.773z"></path><path fill="#D66976" d="M497.546 212.974a.484.484 0 0 1-.135-.019l-30.367-8.475a.5.5 0 0 1 .269-.963l30.018 8.377 15.523-23.344a.5.5 0 1 1 .832.553l-15.725 23.646a.493.493 0 0 1-.415.225zM475.809 232.478a.5.5 0 0 1-.425-.764l11.266-18.115a.5.5 0 0 1 .849.528l-11.266 18.115a.498.498 0 0 1-.424.236zM520.382 217.52a.5.5 0 0 1-.239-.061l-15.659-8.556a.5.5 0 1 1 .479-.878l15.659 8.556a.5.5 0 0 1-.24.939z"></path><linearGradient id="aq" x1="430.88" x2="483.592" y1="332.034" y2="332.034" gradientUnits="userSpaceOnUse"><stop offset="0" stop-color="#fde1a7"></stop><stop offset="1" stop-color="#f9a144"></stop></linearGradient><path fill="url(#aq)" d="M483.183 326.798c.939 2.119.132 3.443-1.119 4.414L450.6 356.138a3.219 3.219 0 0 1-4.412-1.12l-14.834-20.065c-.91-1.528-.47-3.525.988-4.634 0 0 10.187-7.443 17.139-11.63 6.778-4.083 16.709-10.773 16.709-10.773 1.527-.909 3.082-.383 4.173 1.369l12.82 17.513z"></path><path fill="#D66976" d="M431.074 334.857a.5.5 0 0 1-.001-1l29.977-.069 7.391-26.103a.5.5 0 0 1 .963.272l-7.494 26.466a.502.502 0 0 1-.48.364l-30.356.07c.001 0 0 0 0 0zM448.372 357.034a.5.5 0 0 1-.49-.599l3.713-18.227a.5.5 0 0 1 .981.199l-3.714 18.227a.5.5 0 0 1-.49.4zM483.494 329.761h-.017l-16.463-.563a.5.5 0 0 1-.482-.517c.01-.276.284-.506.517-.482l16.463.563a.5.5 0 0 1-.018.999z"></path><linearGradient id="ar" x1="113.739" x2="163.955" y1="438.566" y2="438.566" gradientUnits="userSpaceOnUse"><stop offset="0" stop-color="#fde1a7"></stop><stop offset="1" stop-color="#f9a144"></stop></linearGradient><path fill="url(#ar)" d="M162.475 423.643c1.974 1.879 1.693 3.68.772 5.299l-19.448 39.245a3.784 3.784 0 0 1-5.297.77l-23.15-17.112c-1.677-1.25-2.099-3.618-1.015-5.479 0 0 5.713-10.673 11.378-18.352 5.523-7.486 13.297-19.228 13.297-19.228 1.25-1.674 3.176-1.805 5.149-.392l18.314 15.249z"></path><path fill="#D66976" d="M114.778 452.073a.751.751 0 0 1-.266-1.451l30.392-11.541-3.711-31.539a.75.75 0 0 1 .657-.833.755.755 0 0 1 .833.657l3.78 32.12a.749.749 0 0 1-.479.789l-30.939 11.749a.737.737 0 0 1-.267.049zM141.556 470.12a.5.5 0 0 1-.49-.404l-4.176-21.472a.5.5 0 1 1 .981-.191l4.176 21.472a.5.5 0 0 1-.491.595zM149.289 431.48a.5.5 0 0 1-.156-.975l14.633-4.803a.5.5 0 1 1 .312.949l-14.633 4.803a.452.452 0 0 1-.156.026z"></path><circle cx="125.75" cy="476.75" r="3.5" fill="#FE697A"></circle><circle cx="292.346" cy="416.128" r="3.5" fill="#FE697A"></circle><circle cx="427.116" cy="347.02" r="3.5" fill="#FE697A"></circle><circle cx="500.912" cy="235.249" r="3.5" fill="#FE697A"></circle><path fill="#FDE1A7" d="M488.167 186c-.541 0-.986-.432-1-.976-.09-3.7-1.027-6.341-2.864-8.075-3.844-3.626-11.577-3.366-21.359-3.035l-2.579.086c-3.806.112-6.222-.573-7.642-2.171-1.932-2.174-1.442-5.442-.924-8.902.469-3.121.952-6.349-.217-9.026-3.457-7.923-23.849-7.695-40.758-2.938-17.523 4.928-31.1 10.283-31.235 10.336a1.001 1.001 0 0 1-.736-1.86c.136-.054 13.802-5.444 31.43-10.402 14.243-4.006 38.547-6.445 43.134 4.063 1.398 3.205.848 6.88.361 10.123-.467 3.114-.87 5.803.44 7.277.982 1.106 2.975 1.595 6.084 1.501l2.573-.084c10.249-.347 18.348-.62 22.799 3.579 2.246 2.119 3.388 5.22 3.492 9.48a1 1 0 0 1-.976 1.024h-.023zM493.836 177.652a.75.75 0 0 1-.75-.732c-.165-6.789-2.951-9.997-9.617-11.074a.75.75 0 1 1 .238-1.481c7.342 1.186 10.697 5.046 10.879 12.518a.75.75 0 0 1-.731.768l-.019.001zM384.605 150.706a.748.748 0 0 1-.431-1.364c2.166-1.517 13.742-7.533 26.71-7.01a.751.751 0 0 1-.059 1.499c-12.57-.508-23.707 5.281-25.79 6.74a.751.751 0 0 1-.43.135z"></path><path fill="#FDE1A7" d="M410.729 168.581a.756.756 0 0 1-.284-.056c-2.593-1.061-9.934-.946-12.301-.82a.751.751 0 0 1-.08-1.498c.096-.004 9.554-.458 12.949.93a.75.75 0 0 1-.284 1.444zM479.918 307a.999.999 0 0 1-.993-1.124c.733-5.87 6.902-8.584 12.867-11.209 6.73-2.961 13.087-5.758 13.208-12.518.086-4.756-3.874-7.195-8.458-10.019-4.522-2.786-9.649-5.943-10.368-12.012-.852-7.19 4.434-13.184 8.68-18 2.323-2.634 4.518-5.123 5.098-7.145a1 1 0 0 1 1.922.551c-.704 2.456-2.936 4.986-5.52 7.917-4.19 4.752-8.94 10.138-8.193 16.441.605 5.108 4.892 7.749 9.431 10.544 4.678 2.882 9.515 5.861 9.409 11.758-.145 8.039-7.72 11.372-14.402 14.313-5.706 2.51-11.096 4.882-11.688 9.626a1.003 1.003 0 0 1-.993.877zM474.501 269.875a.748.748 0 0 1-.616-.321c-5.477-7.858-2.705-15.303-.475-18.142a.75.75 0 0 1 1.18.927c-.058.073-5.691 7.438.525 16.358a.75.75 0 0 1-.614 1.178zM375.751 402.375a1 1 0 0 1-.537-1.845c2.891-1.833 7.973-2.329 13.858-2.904 4.95-.483 10.56-1.031 15.094-2.522 7.402-2.434 15.539-7.685 16.175-15.125.416-4.857-1.866-7.178-4.281-9.634-2.037-2.071-4.143-4.212-4.31-7.798-.433-9.306 14.321-16.15 14.95-16.437a1.001 1.001 0 0 1 .83 1.82c-4.896 2.235-14.079 8.147-13.782 14.524.131 2.822 1.802 4.521 3.737 6.489 2.504 2.546 5.342 5.432 4.849 11.206-.72 8.412-9.534 14.223-17.543 16.855-4.744 1.56-10.471 2.119-15.524 2.612-5.396.527-10.494 1.025-12.981 2.604a.999.999 0 0 1-.535.155zM404.501 361.375a1 1 0 0 1-.995-1.111c1.277-11.364 9.448-15.93 12.489-16.73a1 1 0 1 1 .509 1.935c-2.492.656-9.865 4.823-11.011 15.02a.998.998 0 0 1-.992.886zM291.142 417.263c-2.832 0-9.929-1.297-25.389-10.145-2.03-1.162-4.09-2.36-6.181-3.576-20.645-12.006-44.042-25.606-70.903-23.296-19.896 1.718-29.342 13.438-32.446 17.29-.304.376-.544.675-.726.878a1 1 0 1 1-1.495-1.328c.166-.187.386-.46.664-.805 3.236-4.017 13.086-16.236 33.832-18.027 27.485-2.384 51.178 11.404 72.081 23.56 2.086 1.213 4.142 2.409 6.168 3.568 19.708 11.278 25.224 9.814 25.277 9.8a1.013 1.013 0 0 1 1.251.629.984.984 0 0 1-.571 1.251c-.147.056-.617.201-1.562.201zM151.083 384a.748.748 0 0 1-.585-1.219c2.737-3.422 10.67-11.256 25.231-10.029a.75.75 0 0 1 .685.81.756.756 0 0 1-.81.685c-13.831-1.159-21.347 6.237-23.935 9.471a.75.75 0 0 1-.586.282zM123.249 518.25a1 1 0 0 1-.997-.931c-1.289-18.555.871-34.896 2.535-40.839a.999.999 0 1 1 1.925.539c-1.627 5.813-3.736 21.857-2.465 40.161a1 1 0 0 1-.998 1.07zM169.656 583.066c-.129 0-.261-.025-.388-.078-.328-.139-8.039-3.449-8.906-9.001-.569-3.641 1.035-5.97 2.586-8.222.921-1.337 1.874-2.719 2.435-4.44 2.14-6.559-2.426-10.162-4.366-10.996a1 1 0 0 1 .791-1.837c2.406 1.036 8.081 5.472 5.477 13.455-.651 1.996-1.734 3.567-2.689 4.954-1.511 2.192-2.704 3.925-2.258 6.778.696 4.449 7.639 7.437 7.708 7.467a1 1 0 0 1-.39 1.92zM174.371 568.632a.75.75 0 0 1-.556-1.253c2.481-2.743 2.676-5.748 2.402-7.785-.41-3.051-1.986-5.312-2.974-5.942a.75.75 0 1 1 .807-1.264c1.438.917 3.208 3.685 3.654 7.006.316 2.353.091 5.822-2.776 8.991a.75.75 0 0 1-.557.247z"></path><path fill="#FE697A" d="m370.579 163.507 6.237-10.236 4.938 14.57z"></path><linearGradient id="as" x1="97.067" x2="148.019" y1="551.43" y2="551.43" gradientUnits="userSpaceOnUse"><stop offset="0" stop-color="#fde1a7"></stop><stop offset="1" stop-color="#f9a144"></stop></linearGradient><path fill="url(#as)" d="m142.827 527.515-33.987-6.188c-3.315-.333-5.52 1.136-5.864 3.986 0 0-.524 5.079-1.231 11.786a195.82 195.82 0 0 0 2.256 2.9c12.84 16.13 27.624 30.066 43.831 41.578l-.466-48.282c-.007-2.558-.903-4.893-4.539-5.78z"></path><path fill="#D66976" d="M129.19 549.903a1 1 0 0 1-.749-1.662l17.092-19.359a1 1 0 0 1 1.499 1.324l-17.092 19.359a.996.996 0 0 1-.75.338zM131.655 561.042l-25.261-39.851a1 1 0 0 0-1.69 1.07l24.887 39.261-2.503 3.263c.493.453.981.912 1.478 1.359l3.038-3.959a1 1 0 0 0 .051-1.143z"></path></svg>